<?xml version="1.0" standalone="yes"?>

<svg version="1.1" viewBox="0.0 0.0 272.0 144.0" fill="none" stroke="none" stroke-linecap="square" stroke-miterlimit="10" xmlns="http://www.w3.org/2000/svg" xmlns:xlink="http://www.w3.org/1999/xlink"><clipPath id="p.0"><path d="m0 0l272.0 0l0 144.0l-272.0 0l0 -144.0z" clip-rule="nonzero"></path></clipPath><g clip-path="url(#p.0)"><path fill="#000000" fill-opacity="0.0" d="m0 0l272.0 0l0 144.0l-272.0 0z" fill-rule="nonzero"></path><path fill="#b7b7b7" d="m8.0 32.0l32.0 0l0 16.0l-32.0 0z" fill-rule="nonzero"></path><path stroke="#b7b7b7" stroke-width="1.0" stroke-linejoin="round" stroke-linecap="butt" d="m8.0 32.0l32.0 0l0 16.0l-32.0 0z" fill-rule="nonzero"></path><path fill="#b7b7b7" d="m8.0 8.0l16.0 0l0 64.0l-16.0 0z" fill-rule="nonzero"></path><path stroke="#b7b7b7" stroke-width="1.0" stroke-linejoin="round" stroke-linecap="butt" d="m8.0 8.0l16.0 0l0 64.0l-16.0 0z" fill-rule="nonzero"></path><path fill="#b7b7b7" d="m40.089928 103.99987l0 0c-8.502476 0.023895264 -16.664904 -3.3369522 -22.685528 -9.340683c-6.020624 -6.003723 -9.4044 -14.156677 -9.4044 -22.659187l16.0 0c0 4.251251 1.6918869 8.327728 4.7022 11.329597c3.010313 3.0018616 7.091528 4.682289 11.342764 4.6703415z" fill-rule="nonzero"></path><path stroke="#b7b7b7" stroke-width="1.0" stroke-linejoin="round" stroke-linecap="butt" d="m40.089928 103.99987l0 0c-8.502476 0.023895264 -16.664904 -3.3369522 -22.685528 -9.340683c-6.020624 -6.003723 -9.4044 -14.156677 -9.4044 -22.659187l16.0 0c0 4.251251 1.6918869 8.327728 4.7022 11.329597c3.010313 3.0018616 7.091528 4.682289 11.342764 4.6703415z" fill-rule="nonzero"></path><path fill="#b7b7b7" d="m72.0 32.0l-16.0 0l0 72.0l16.0 0z" fill-rule="nonzero"></path><path stroke="#b7b7b7" stroke-width="1.0" stroke-linejoin="round" stroke-linecap="butt" d="m72.0 32.0l-16.0 0l0 72.0l16.0 0z" fill-rule="nonzero"></path><path fill="#b7b7b7" d="m39.910072 135.99988l0 0c8.502476 0.023895264 16.664902 -3.3369598 22.685528 -9.340691c6.020626 -6.003723 9.4044 -14.156677 9.4044 -22.659187l-16.0 0c0 4.251251 -1.6918869 8.327728 -4.702202 11.329597c-3.0103111 3.0018616 -7.091526 4.682289 -11.342762 4.6703415z" fill-rule="nonzero"></path><path stroke="#b7b7b7" stroke-width="1.0" stroke-linejoin="round" stroke-linecap="butt" d="m39.910072 135.99988l0 0c8.502476 0.023895264 16.664902 -3.3369598 22.685528 -9.340691c6.020626 -6.003723 9.4044 -14.156677 9.4044 -22.659187l-16.0 0c0 4.251251 -1.6918869 8.327728 -4.702202 11.329597c-3.0103111 3.0018616 -7.091526 4.682289 -11.342762 4.6703415z" fill-rule="nonzero"></path><path fill="#b7b7b7" d="m56.0 16.0l0 0c0 -4.4182777 3.5817223 -8.0 8.0 -8.0l0 0c2.1217346 0 4.156563 0.8428545 5.6568527 2.3431454c1.5002899 1.5002918 2.3431473 3.5351229 2.3431473 5.6568546l0 0c0 4.4182777 -3.5817184 8.0 -8.0 8.0l0 0c-4.4182777 0 -8.0 -3.5817223 -8.0 -8.0z" fill-rule="nonzero"></path><path stroke="#b7b7b7" stroke-width="1.0" stroke-linejoin="round" stroke-linecap="butt" d="m56.0 16.0l0 0c0 -4.4182777 3.5817223 -8.0 8.0 -8.0l0 0c2.1217346 0 4.156563 0.8428545 5.6568527 2.3431454c1.5002899 1.5002918 2.3431473 3.5351229 2.3431473 5.6568546l0 0c0 4.4182777 -3.5817184 8.0 -8.0 8.0l0 0c-4.4182777 0 -8.0 -3.5817223 -8.0 -8.0z" fill-rule="nonzero"></path><path fill="#b6d7a8" d="m128.0 56.0l0 0c0 -26.509668 21.490326 -48.0 48.0 -48.0l0 0c12.730392 0 24.939377 5.057128 33.94113 14.058874c9.0017395 9.001747 14.058868 21.210733 14.058868 33.941124l0 0c0 26.509666 -21.490326 48.0 -48.0 48.0l0 0c-26.509674 0 -48.0 -21.490334 -48.0 -48.0zm16.06752 0l0 0c0 17.635818 14.296661 31.93248 31.93248 31.93248c17.635818 0 31.93248 -14.296661 31.93248 -31.93248l0 0c0 -17.635822 -14.296661 -31.93248 -31.93248 -31.93248l0 0c-17.635818 0 -31.93248 14.296658 -31.93248 31.93248z" fill-rule="nonzero"></path><path stroke="#b6d7a8" stroke-width="1.0" stroke-linejoin="round" stroke-linecap="butt" d="m128.0 56.0l0 0c0 -26.509668 21.490326 -48.0 48.0 -48.0l0 0c12.730392 0 24.939377 5.057128 33.94113 14.058874c9.0017395 9.001747 14.058868 21.210733 14.058868 33.941124l0 0c0 26.509666 -21.490326 48.0 -48.0 48.0l0 0c-26.509674 0 -48.0 -21.490334 -48.0 -48.0zm16.06752 0l0 0c0 17.635818 14.296661 31.93248 31.93248 31.93248c17.635818 0 31.93248 -14.296661 31.93248 -31.93248l0 0c0 -17.635822 -14.296661 -31.93248 -31.93248 -31.93248l0 0c-17.635818 0 -31.93248 14.296658 -31.93248 31.93248z" fill-rule="nonzero"></path><path fill="#93c47d" d="m104.0 8.0l16.0 0l0 96.0l-16.0 0z" fill-rule="nonzero"></path><path stroke="#93c47d" stroke-width="1.0" stroke-linejoin="round" stroke-linecap="butt" d="m104.0 8.0l16.0 0l0 96.0l-16.0 0z" fill-rule="nonzero"></path><path fill="#93c47d" d="m88.0 8.0l48.0 0l0 16.0l-48.0 0z" fill-rule="nonzero"></path><path stroke="#93c47d" stroke-width="1.0" stroke-linejoin="round" stroke-linecap="butt" d="m88.0 8.0l48.0 0l0 16.0l-48.0 0z" fill-rule="nonzero"></path><path fill="#93c47d" d="m88.0 88.0l48.0 0l0 16.0l-48.0 0z" fill-rule="nonzero"></path><path stroke="#93c47d" stroke-width="1.0" stroke-linejoin="round" stroke-linecap="butt" d="m88.0 88.0l48.0 0l0 16.0l-48.0 0z" fill-rule="nonzero"></path><path fill="#93c47d" d="m232.0 8.0l16.0 0l0 96.0l-16.0 0z" fill-rule="nonzero"></path><path stroke="#93c47d" stroke-width="1.0" stroke-linejoin="round" stroke-linecap="butt" d="m232.0 8.0l16.0 0l0 96.0l-16.0 0z" fill-rule="nonzero"></path><path fill="#93c47d" d="m216.0 8.0l48.0 0l0 16.0l-48.0 0z" fill-rule="nonzero"></path><path stroke="#93c47d" stroke-width="1.0" stroke-linejoin="round" stroke-linecap="butt" d="m216.0 8.0l48.0 0l0 16.0l-48.0 0z" fill-rule="nonzero"></path><path fill="#93c47d" d="m216.0 88.0l48.0 0l0 16.0l-48.0 0z" fill-rule="nonzero"></path><path stroke="#93c47d" stroke-width="1.0" stroke-linejoin="round" stroke-linecap="butt" d="m216.0 88.0l48.0 0l0 16.0l-48.0 0z" fill-rule="nonzero"></path></g></svg>

